<svg xmlns="http://www.w3.org/2000/svg" xmlns:xlink="http://www.w3.org/1999/xlink" viewBox="0 0 1160 740" width="1160" height="740" role="img" aria-label="Animated diagram: eight healthcare data sources streaming into a dimensional human figure that represents a women's health digital twin, which outputs twin state and a decision.">
  <title>Women&#8217;s Health Digital Twin &#8212; Data Fabric</title>
  <desc>Eight digital thread sources (Epic and FHIR, labs and vitals, imaging and procedures, claims and coverage, wearables and remote monitoring, patient-reported outcomes, social determinants and access, history and genomics) stream continuously into a patient digital twin rendered as a volumetric human figure, which maintains state and drives a decision.</desc>

  <defs>
    <!-- ===== body geometry ===== -->
    <!-- long hair mass, drawn behind the body -->
    <path id="hairPath" d="M580,126
      C600,126 615,146 617,172 C619,196 621,218 620,242
      C620,258 617,272 613,284 C610,290 604,288 603,280
      C602,264 599,250 596,238 C594,228 593,222 593,214
      L567,214 C567,222 566,228 564,238
      C561,250 558,264 557,280 C556,288 550,290 547,284
      C543,272 540,258 540,242 C539,218 541,196 543,172
      C545,146 560,126 580,126 Z"/>
    <path id="torsoPath" d="M580,128
      C596,128 605,144 605,164 C605,180 602,191 596,197
      C594,201 593,205 593,212 C594,222 602,228 612,233
      C620,239 626,247 627,259 C628,271 628,283 626,297
      C622,310 616,326 613,344 C611,358 620,374 629,388
      C633,400 632,416 628,432 C623,452 611,472 605,494
      C602,506 609,518 610,530 C611,552 599,578 594,596
      C593,604 597,610 603,613 C608,616 611,619 610,623
      L610,624 L585,624 C584,614 584,606 584,596
      C588,560 592,548 592,534 C592,516 591,506 591,494
      C591,470 589,448 587,430 C585,414 583,402 582,392
      C578,402 577,414 573,430 C571,448 569,470 569,494
      C569,506 568,516 568,534 C568,548 572,560 576,596
      C576,606 576,614 575,624 L550,624 L550,623
      C549,619 552,616 557,613 C563,610 567,604 566,596
      C561,578 549,552 550,530 C550,518 557,506 555,494
      C549,472 537,452 532,432 C528,416 527,400 531,388
      C540,374 549,358 547,344 C544,326 538,310 534,296
      C531,282 529,270 529,258 C534,247 540,239 548,233
      C558,228 566,222 566,212 C567,205 566,201 564,197
      C558,191 555,180 555,164 C555,144 564,128 580,128 Z"/>
    <path id="armR" d="M624,238
      C638,248 646,266 647,286 C648,306 645,326 641,344
      C639,360 636,374 634,390 C632,404 630,414 630,424
      C632,436 634,444 633,452 C632,461 627,465 623,463
      C619,461 617,452 616,444 C615,436 615,430 616,422
      C618,406 620,392 622,376 C623,358 625,340 626,322
      C627,302 628,282 626,264 C624,252 620,244 618,238
      C619,234 622,234 624,238 Z"/>
    <path id="armL" d="M536,238
      C522,248 514,266 513,286 C512,306 515,326 519,344
      C521,360 524,374 526,390 C528,404 530,414 530,424
      C528,436 526,444 527,452 C528,461 533,465 537,463
      C541,461 543,452 544,444 C545,436 545,430 544,422
      C542,406 540,392 538,376 C537,358 535,340 534,322
      C533,302 532,282 534,264 C536,252 540,244 542,238
      C541,234 538,234 536,238 Z"/>

    <clipPath id="bodyClip">
      <use xlink:href="#torsoPath" href="#torsoPath"/>
      <use xlink:href="#armR" href="#armR"/>
      <use xlink:href="#armL" href="#armL"/>
    </clipPath>
    <clipPath id="hairClip">
      <use xlink:href="#hairPath" href="#hairPath"/>
    </clipPath>

    <!-- ===== volumetric shading ===== -->
    <linearGradient id="formShade" x1="0%" y1="0%" x2="100%" y2="0%">
      <stop offset="0%" stop-color="#0EA5E9" stop-opacity="0.30"/>
      <stop offset="16%" stop-color="#38BDF8" stop-opacity="0.34"/>
      <stop offset="40%" stop-color="#6366F1" stop-opacity="0.26"/>
      <stop offset="66%" stop-color="#7C3AED" stop-opacity="0.24"/>
      <stop offset="88%" stop-color="#4C1D95" stop-opacity="0.34"/>
      <stop offset="100%" stop-color="#1E1B4B" stop-opacity="0.46"/>
    </linearGradient>
    <linearGradient id="depthShade" x1="0%" y1="0%" x2="0%" y2="100%">
      <stop offset="0%" stop-color="#F0ABFC" stop-opacity="0.14"/>
      <stop offset="38%" stop-color="#818CF8" stop-opacity="0.05"/>
      <stop offset="100%" stop-color="#0F172A" stop-opacity="0.40"/>
    </linearGradient>
    <radialGradient id="keyLight" cx="34%" cy="26%" r="46%">
      <stop offset="0%" stop-color="#E0F2FE" stop-opacity="0.34"/>
      <stop offset="60%" stop-color="#BAE6FD" stop-opacity="0.08"/>
      <stop offset="100%" stop-color="#BAE6FD" stop-opacity="0"/>
    </radialGradient>
    <linearGradient id="rimGrad" x1="0%" y1="0%" x2="100%" y2="0%">
      <stop offset="0%" stop-color="#CFFAFE" stop-opacity="0.95"/>
      <stop offset="22%" stop-color="#7DD3FC" stop-opacity="0.80"/>
      <stop offset="58%" stop-color="#A78BFA" stop-opacity="0.42"/>
      <stop offset="100%" stop-color="#6D28D9" stop-opacity="0.30"/>
    </linearGradient>
    <linearGradient id="contourGrad" x1="0%" y1="0%" x2="100%" y2="0%">
      <stop offset="0%" stop-color="#BAE6FD" stop-opacity="0.55"/>
      <stop offset="45%" stop-color="#A5B4FC" stop-opacity="0.28"/>
      <stop offset="100%" stop-color="#7C3AED" stop-opacity="0.10"/>
    </linearGradient>
    <radialGradient id="coreGlow" cx="50%" cy="50%" r="50%">
      <stop offset="0%" stop-color="#F472B6" stop-opacity="0.50"/>
      <stop offset="55%" stop-color="#C026D3" stop-opacity="0.14"/>
      <stop offset="100%" stop-color="#7E22CE" stop-opacity="0"/>
    </radialGradient>
    <linearGradient id="scanLine" x1="0" y1="0" x2="1" y2="0">
      <stop offset="0%" stop-color="#38BDF8" stop-opacity="0"/>
      <stop offset="50%" stop-color="#BAE6FD" stop-opacity="0.9"/>
      <stop offset="100%" stop-color="#38BDF8" stop-opacity="0"/>
    </linearGradient>
    <linearGradient id="headerRule" x1="0" y1="0" x2="1" y2="0">
      <stop offset="0%" stop-color="#38BDF8" stop-opacity="0.9"/>
      <stop offset="50%" stop-color="#A78BFA" stop-opacity="0.7"/>
      <stop offset="100%" stop-color="#F472B6" stop-opacity="0"/>
    </linearGradient>
    <linearGradient id="bgWash" x1="0%" y1="0%" x2="100%" y2="100%">
      <stop offset="0%" stop-color="#0B1226"/>
      <stop offset="50%" stop-color="#080C18"/>
      <stop offset="100%" stop-color="#0A0F20"/>
    </linearGradient>

    <filter id="soften" x="-60%" y="-60%" width="220%" height="220%"><feGaussianBlur stdDeviation="8"/></filter>
    <filter id="softenSm" x="-90%" y="-90%" width="280%" height="280%"><feGaussianBlur stdDeviation="3.2"/></filter>
    <filter id="softenXs" x="-90%" y="-90%" width="280%" height="280%"><feGaussianBlur stdDeviation="1.4"/></filter>
    <filter id="innerShade" x="-40%" y="-40%" width="180%" height="180%"><feGaussianBlur stdDeviation="9"/></filter>

    <!-- ===== thread paths ===== -->
    <path id="t1" d="M258,168 C 372,168 430,238 514,266" fill="none"/>
    <path id="t2" d="M258,272 C 372,272 440,284 512,296" fill="none"/>
    <path id="t3" d="M258,376 C 372,376 444,346 518,326" fill="none"/>
    <path id="t4" d="M258,480 C 372,480 448,398 528,352" fill="none"/>
    <path id="t5" d="M902,168 C 788,168 730,238 646,266" fill="none"/>
    <path id="t6" d="M902,272 C 788,272 720,284 648,296" fill="none"/>
    <path id="t7" d="M902,376 C 788,376 716,346 642,326" fill="none"/>
    <path id="t8" d="M902,480 C 788,480 712,398 632,352" fill="none"/>
    <path id="tOut" d="M580,638 C 580,650 580,654 580,664" fill="none"/>
  </defs>

  <rect width="1160" height="740" fill="url(#bgWash)"/>

  <!-- ===== header ===== -->
  <text x="48" y="52" font-family="ui-sans-serif, -apple-system, Segoe UI, Helvetica, Arial, sans-serif" font-size="23" font-weight="700" fill="#F1F5F9">Women&#8217;s Health Digital Twin &#8212; Data Fabric</text>
  <text x="48" y="76" font-family="ui-monospace, SFMono-Regular, Menlo, Consolas, monospace" font-size="12.5" fill="#7C8DA6" letter-spacing="1.6">DIGITAL THREAD (CONTINUOUS)  &gt;&gt;  TWIN STATE  &gt;&gt;  DECISION</text>
  <rect x="48" y="88" width="420" height="2" fill="url(#headerRule)"/>

  <!-- ===== threads ===== -->
  <g fill="none" stroke-linecap="round">
    <use xlink:href="#t1" href="#t1" stroke="#38BDF8" stroke-opacity="0.24" stroke-width="1.6"/>
    <use xlink:href="#t2" href="#t2" stroke="#22D3EE" stroke-opacity="0.24" stroke-width="1.6"/>
    <use xlink:href="#t3" href="#t3" stroke="#818CF8" stroke-opacity="0.24" stroke-width="1.6"/>
    <use xlink:href="#t4" href="#t4" stroke="#A78BFA" stroke-opacity="0.24" stroke-width="1.6"/>
    <use xlink:href="#t5" href="#t5" stroke="#34D399" stroke-opacity="0.24" stroke-width="1.6"/>
    <use xlink:href="#t6" href="#t6" stroke="#FBBF24" stroke-opacity="0.24" stroke-width="1.6"/>
    <use xlink:href="#t7" href="#t7" stroke="#FB923C" stroke-opacity="0.24" stroke-width="1.6"/>
    <use xlink:href="#t8" href="#t8" stroke="#F472B6" stroke-opacity="0.24" stroke-width="1.6"/>
  </g>

  <g>
    <circle r="3.6" fill="#7DD3FC"><animateMotion dur="3.6s" repeatCount="indefinite" begin="0s"><mpath xlink:href="#t1" href="#t1"/></animateMotion><animate attributeName="opacity" values="0;1;1;0" keyTimes="0;0.12;0.82;1" dur="3.6s" repeatCount="indefinite" begin="0s"/></circle>
    <circle r="2.4" fill="#7DD3FC" opacity="0.7"><animateMotion dur="3.6s" repeatCount="indefinite" begin="1.8s"><mpath xlink:href="#t1" href="#t1"/></animateMotion></circle>
    <circle r="3.6" fill="#67E8F9"><animateMotion dur="2.9s" repeatCount="indefinite" begin="0.4s"><mpath xlink:href="#t2" href="#t2"/></animateMotion><animate attributeName="opacity" values="0;1;1;0" keyTimes="0;0.12;0.82;1" dur="2.9s" repeatCount="indefinite" begin="0.4s"/></circle>
    <circle r="2.4" fill="#67E8F9" opacity="0.7"><animateMotion dur="2.9s" repeatCount="indefinite" begin="1.9s"><mpath xlink:href="#t2" href="#t2"/></animateMotion></circle>
    <circle r="3.6" fill="#A5B4FC"><animateMotion dur="4.4s" repeatCount="indefinite" begin="0.9s"><mpath xlink:href="#t3" href="#t3"/></animateMotion><animate attributeName="opacity" values="0;1;1;0" keyTimes="0;0.12;0.82;1" dur="4.4s" repeatCount="indefinite" begin="0.9s"/></circle>
    <circle r="3.6" fill="#C4B5FD"><animateMotion dur="5.2s" repeatCount="indefinite" begin="1.4s"><mpath xlink:href="#t4" href="#t4"/></animateMotion><animate attributeName="opacity" values="0;1;1;0" keyTimes="0;0.12;0.82;1" dur="5.2s" repeatCount="indefinite" begin="1.4s"/></circle>
    <circle r="3.6" fill="#6EE7B7"><animateMotion dur="2.2s" repeatCount="indefinite" begin="0.2s"><mpath xlink:href="#t5" href="#t5"/></animateMotion><animate attributeName="opacity" values="0;1;1;0" keyTimes="0;0.12;0.82;1" dur="2.2s" repeatCount="indefinite" begin="0.2s"/></circle>
    <circle r="2.4" fill="#6EE7B7" opacity="0.75"><animateMotion dur="2.2s" repeatCount="indefinite" begin="1.1s"><mpath xlink:href="#t5" href="#t5"/></animateMotion></circle>
    <circle r="3.6" fill="#FCD34D"><animateMotion dur="4.8s" repeatCount="indefinite" begin="0.7s"><mpath xlink:href="#t6" href="#t6"/></animateMotion><animate attributeName="opacity" values="0;1;1;0" keyTimes="0;0.12;0.82;1" dur="4.8s" repeatCount="indefinite" begin="0.7s"/></circle>
    <circle r="3.6" fill="#FDBA74"><animateMotion dur="6s" repeatCount="indefinite" begin="1.1s"><mpath xlink:href="#t7" href="#t7"/></animateMotion><animate attributeName="opacity" values="0;1;1;0" keyTimes="0;0.12;0.82;1" dur="6s" repeatCount="indefinite" begin="1.1s"/></circle>
    <circle r="3.6" fill="#F9A8D4"><animateMotion dur="7.2s" repeatCount="indefinite" begin="2s"><mpath xlink:href="#t8" href="#t8"/></animateMotion><animate attributeName="opacity" values="0;1;1;0" keyTimes="0;0.12;0.82;1" dur="7.2s" repeatCount="indefinite" begin="2s"/></circle>
  </g>

  <!-- ===== source nodes ===== -->
  <g font-family="ui-sans-serif, -apple-system, Segoe UI, Helvetica, Arial, sans-serif">
    <g>
      <rect x="48" y="136" width="210" height="64" rx="10" fill="#101728" stroke="#25324D" stroke-width="1.2"/>
      <rect x="48" y="136" width="3.5" height="64" rx="1.75" fill="#38BDF8"/>
      <circle cx="70" cy="160" r="4" fill="#38BDF8"><animate attributeName="opacity" values="1;0.25;1" dur="2.4s" repeatCount="indefinite"/></circle>
      <text x="84" y="164" font-size="13.5" font-weight="600" fill="#E2E8F0">Epic &#183; FHIR R4</text>
      <text x="70" y="184" font-family="ui-monospace, SFMono-Regular, Menlo, Consolas, monospace" font-size="10.5" fill="#7C8DA6">Condition &#183; Encounter &#183; Procedure</text>
    </g>
    <g>
      <rect x="48" y="240" width="210" height="64" rx="10" fill="#101728" stroke="#25324D" stroke-width="1.2"/>
      <rect x="48" y="240" width="3.5" height="64" rx="1.75" fill="#22D3EE"/>
      <circle cx="70" cy="264" r="4" fill="#22D3EE"><animate attributeName="opacity" values="1;0.25;1" dur="1.8s" repeatCount="indefinite"/></circle>
      <text x="84" y="268" font-size="13.5" font-weight="600" fill="#E2E8F0">Labs &amp; Vitals</text>
      <text x="70" y="288" font-family="ui-monospace, SFMono-Regular, Menlo, Consolas, monospace" font-size="10.5" fill="#7C8DA6">BP series &#183; lipids &#183; A1c &#183; CBC</text>
    </g>
    <g>
      <rect x="48" y="344" width="210" height="64" rx="10" fill="#101728" stroke="#25324D" stroke-width="1.2"/>
      <rect x="48" y="344" width="3.5" height="64" rx="1.75" fill="#818CF8"/>
      <circle cx="70" cy="368" r="4" fill="#818CF8"><animate attributeName="opacity" values="1;0.25;1" dur="3.1s" repeatCount="indefinite"/></circle>
      <text x="84" y="372" font-size="13.5" font-weight="600" fill="#E2E8F0">Imaging &amp; Procedures</text>
      <text x="70" y="392" font-family="ui-monospace, SFMono-Regular, Menlo, Consolas, monospace" font-size="10.5" fill="#7C8DA6">Laparoscopy &#183; US &#183; pathology</text>
    </g>
    <g>
      <rect x="48" y="448" width="210" height="64" rx="10" fill="#101728" stroke="#25324D" stroke-width="1.2"/>
      <rect x="48" y="448" width="3.5" height="64" rx="1.75" fill="#A78BFA"/>
      <circle cx="70" cy="472" r="4" fill="#A78BFA"><animate attributeName="opacity" values="1;0.25;1" dur="3.8s" repeatCount="indefinite"/></circle>
      <text x="84" y="476" font-size="13.5" font-weight="600" fill="#E2E8F0">Claims &amp; Coverage</text>
      <text x="70" y="496" font-family="ui-monospace, SFMono-Regular, Menlo, Consolas, monospace" font-size="10.5" fill="#7C8DA6">Out-of-network &#183; eligibility</text>
    </g>

    <g>
      <rect x="902" y="136" width="210" height="64" rx="10" fill="#101728" stroke="#25324D" stroke-width="1.2"/>
      <rect x="1108.5" y="136" width="3.5" height="64" rx="1.75" fill="#34D399"/>
      <circle cx="924" cy="160" r="4" fill="#34D399"><animate attributeName="opacity" values="1;0.25;1" dur="1.4s" repeatCount="indefinite"/></circle>
      <text x="938" y="164" font-size="13.5" font-weight="600" fill="#E2E8F0">Wearables &amp; RPM</text>
      <text x="924" y="184" font-family="ui-monospace, SFMono-Regular, Menlo, Consolas, monospace" font-size="10.5" fill="#7C8DA6">Home BP &#183; HR &#183; sleep &#183; activity</text>
    </g>
    <g>
      <rect x="902" y="240" width="210" height="64" rx="10" fill="#101728" stroke="#25324D" stroke-width="1.2"/>
      <rect x="1108.5" y="240" width="3.5" height="64" rx="1.75" fill="#FBBF24"/>
      <circle cx="924" cy="264" r="4" fill="#FBBF24"><animate attributeName="opacity" values="1;0.25;1" dur="2.7s" repeatCount="indefinite"/></circle>
      <text x="938" y="268" font-size="13.5" font-weight="600" fill="#E2E8F0">Patient-Reported</text>
      <text x="924" y="288" font-family="ui-monospace, SFMono-Regular, Menlo, Consolas, monospace" font-size="10.5" fill="#7C8DA6">Symptoms &#183; PROMs &#183; attendance</text>
    </g>
    <g>
      <rect x="902" y="344" width="210" height="64" rx="10" fill="#101728" stroke="#25324D" stroke-width="1.2"/>
      <rect x="1108.5" y="344" width="3.5" height="64" rx="1.75" fill="#FB923C"/>
      <circle cx="924" cy="368" r="4" fill="#FB923C"><animate attributeName="opacity" values="1;0.25;1" dur="3.4s" repeatCount="indefinite"/></circle>
      <text x="938" y="372" font-size="13.5" font-weight="600" fill="#E2E8F0">SDOH &amp; Access</text>
      <text x="924" y="392" font-family="ui-monospace, SFMono-Regular, Menlo, Consolas, monospace" font-size="10.5" fill="#7C8DA6">Language &#183; transport &#183; distance</text>
    </g>
    <g>
      <rect x="902" y="448" width="210" height="64" rx="10" fill="#101728" stroke="#25324D" stroke-width="1.2"/>
      <rect x="1108.5" y="448" width="3.5" height="64" rx="1.75" fill="#F472B6"/>
      <circle cx="924" cy="472" r="4" fill="#F472B6"><animate attributeName="opacity" values="1;0.25;1" dur="4.6s" repeatCount="indefinite"/></circle>
      <text x="938" y="476" font-size="13.5" font-weight="600" fill="#E2E8F0">History &amp; Genomics</text>
      <text x="924" y="496" font-family="ui-monospace, SFMono-Regular, Menlo, Consolas, monospace" font-size="10.5" fill="#7C8DA6">Reproductive hx &#183; family hx</text>
    </g>
  </g>

  <!-- ===== the twin ===== -->
  <g>
    <!-- ambient volume glow -->
    <ellipse cx="580" cy="368" rx="126" ry="244" fill="url(#coreGlow)" opacity="0.45">
      <animate attributeName="opacity" values="0.30;0.55;0.30" dur="5s" repeatCount="indefinite"/>
    </ellipse>

    <!-- sandbox boundary -->
    <ellipse cx="580" cy="376" rx="116" ry="262" fill="none" stroke="#334155" stroke-width="1.2" stroke-dasharray="5 9" opacity="0.5">
      <animateTransform attributeName="transform" type="rotate" from="0 580 380" to="360 580 380" dur="60s" repeatCount="indefinite"/>
    </ellipse>

    <!-- contact shadow under figure -->
    <ellipse cx="580" cy="634" rx="60" ry="8" fill="#000000" opacity="0.5" filter="url(#soften)"/>

    <!-- BODY: base volume -->
    <g>
      <!-- long hair, behind the body -->
      <use xlink:href="#hairPath" href="#hairPath" fill="#0A0F22"/>
      <use xlink:href="#hairPath" href="#hairPath" fill="url(#formShade)"/>
      <g clip-path="url(#hairClip)">
        <rect x="530" y="110" width="100" height="190" fill="url(#depthShade)"/>
        <g fill="none" stroke="#A5B4FC" stroke-opacity="0.20" stroke-width="1">
          <path d="M552,140 C545,180 542,238 546,286"/>
          <path d="M561,133 C553,178 550,238 554,288"/>
          <path d="M600,133 C608,178 611,238 607,288"/>
          <path d="M609,140 C616,180 619,238 615,286"/>
        </g>
      </g>
      <use xlink:href="#hairPath" href="#hairPath" fill="none" stroke="url(#rimGrad)" stroke-width="1.4" stroke-linejoin="round"/>

      <!-- arms sit behind the torso so the shoulder seam closes -->
      <use xlink:href="#armL" href="#armL" fill="#0C1226"/>
      <use xlink:href="#armR" href="#armR" fill="#0C1226"/>
      <use xlink:href="#armL" href="#armL" fill="url(#formShade)"/>
      <use xlink:href="#armR" href="#armR" fill="url(#formShade)"/>
      <use xlink:href="#armL" href="#armL" fill="url(#depthShade)"/>
      <use xlink:href="#armR" href="#armR" fill="url(#depthShade)"/>
      <g fill="none" stroke="url(#rimGrad)" stroke-width="1.4" stroke-linejoin="round">
        <use xlink:href="#armL" href="#armL"/>
        <use xlink:href="#armR" href="#armR"/>
      </g>

      <use xlink:href="#torsoPath" href="#torsoPath" fill="#0C1226"/>
      <use xlink:href="#torsoPath" href="#torsoPath" fill="url(#formShade)"/>
      <use xlink:href="#torsoPath" href="#torsoPath" fill="url(#depthShade)"/>
    </g>

    <!-- clipped interior: light, contours, anatomy -->
    <g clip-path="url(#bodyClip)">
      <!-- key light from upper left -->
      <rect x="495" y="120" width="180" height="516" fill="url(#keyLight)"/>

      <!-- form shadow along right edge -->
      <path d="M700,110 L700,660 L628,660 C640,540 646,380 632,130 Z" fill="#0B1026" opacity="0.55" filter="url(#innerShade)"/>
      <!-- softer shadow under arms / inner thigh -->
      <path d="M626,246 C632,320 630,392 628,452 L648,452 L648,246 Z" fill="#0B1026" opacity="0.30" filter="url(#innerShade)"/>
      <path d="M534,246 C528,320 530,392 532,452 L512,452 L512,246 Z" fill="#0B1026" opacity="0.18" filter="url(#innerShade)"/>
      <path d="M571,400 C577,470 577,545 575,620 L587,620 C585,545 585,470 589,400 Z" fill="#0B1026" opacity="0.42" filter="url(#innerShade)"/>

      <!-- transverse contour bands: latitude lines that sag to imply roundness -->
      <g fill="none" stroke="url(#contourGrad)" stroke-width="1.15">
        <path d="M470,246 Q580,257 690,246"/>
        <path d="M470,272 Q580,283 690,272"/>
        <path d="M470,298 Q580,309 690,298"/>
        <path d="M470,324 Q580,335 690,324"/>
        <path d="M470,350 Q580,361 690,350"/>
        <path d="M470,376 Q580,387 690,376"/>
        <path d="M470,402 Q580,413 690,402"/>
        <path d="M470,428 Q580,439 690,428"/>
        <path d="M470,454 Q580,465 690,454"/>
        <path d="M470,480 Q580,490 690,480"/>
        <path d="M470,506 Q580,514 690,506"/>
        <path d="M470,532 Q580,539 690,532"/>
        <path d="M470,558 Q580,564 690,558"/>
        <path d="M470,584 Q580,589 690,584"/>
        <path d="M470,610 Q580,614 690,610"/>
      </g>

      <!-- longitudinal meridians: curve with the body's cross-section -->
      <g fill="none" stroke="#A5B4FC" stroke-opacity="0.22" stroke-width="1">
        <path d="M556,212 C548,290 550,360 556,430 C560,510 562,570 562,620"/>
        <path d="M604,212 C612,290 610,360 604,430 C600,510 598,570 598,620"/>
        <path d="M580,200 C580,290 580,350 580,392"/>
      </g>

      <!-- vascular tree -->
      <g fill="none" stroke="#7DD3FC" stroke-opacity="0.40" stroke-width="1.3" stroke-linecap="round">
        <path d="M580,232 C578,258 574,272 566,286"/>
        <path d="M566,292 C572,314 578,330 580,352 C582,376 580,392 580,404"/>
        <path d="M566,292 C558,308 552,330 551,352"/>
        <path d="M580,352 C591,362 600,372 604,384"/>
        <path d="M580,404 C572,430 568,470 566,510"/>
        <path d="M580,404 C588,430 592,470 594,510"/>
        <path d="M572,240 C562,250 552,262 547,278"/>
        <path d="M588,240 C598,250 608,262 613,278"/>
      </g>
      <!-- circulating markers along the vascular tree -->
      <circle r="2.3" fill="#BAE6FD" opacity="0.9">
        <animateMotion dur="3.2s" repeatCount="indefinite" path="M580,232 C578,258 574,272 566,286 C572,314 578,330 580,352 C582,376 580,392 580,404 C572,430 568,470 566,510"/>
      </circle>
      <circle r="2" fill="#BAE6FD" opacity="0.75">
        <animateMotion dur="3.2s" begin="1.6s" repeatCount="indefinite" path="M580,232 C578,258 574,272 566,286 C572,314 578,330 580,352 C582,376 580,392 580,404 C588,430 592,470 594,510"/>
      </circle>

      <!-- pelvic / reproductive structure -->
      <g fill="none" stroke="#F9A8D4" stroke-opacity="0.5" stroke-width="1.3" stroke-linecap="round">
        <path d="M580,378 C572,376 566,382 566,390 C566,398 572,404 580,404 C588,404 594,398 594,390 C594,382 588,376 580,378 Z"/>
        <path d="M566,382 C558,374 552,372 548,374"/>
        <path d="M594,382 C602,374 608,372 612,374"/>
      </g>

      <!-- scanning simulation sweep, clipped to the body -->
      <rect x="460" y="242" width="240" height="46" fill="url(#scanLine)" opacity="0">
        <animate attributeName="y" values="242;612;242" dur="7s" repeatCount="indefinite"/>
        <animate attributeName="opacity" values="0;0.28;0.28;0" keyTimes="0;0.08;0.92;1" dur="7s" repeatCount="indefinite"/>
      </rect>
      <rect x="460" y="242" width="240" height="2.4" fill="url(#scanLine)" opacity="0">
        <animate attributeName="y" values="242;612;242" dur="7s" repeatCount="indefinite"/>
        <animate attributeName="opacity" values="0;0.95;0.95;0" keyTimes="0;0.06;0.94;1" dur="7s" repeatCount="indefinite"/>
      </rect>
    </g>

    <!-- rim light outline: bright on the lit side, falling off to the right -->
    <g fill="none" stroke="url(#rimGrad)" stroke-width="1.6" stroke-linejoin="round">
      <use xlink:href="#torsoPath" href="#torsoPath"/>
    </g>
    <!-- specular edge accent on the lit side -->
    <path d="M540,242 C539,218 541,196 543,172 C545,146 560,126 580,126" fill="none" stroke="#E0F2FE" stroke-opacity="0.8" stroke-width="1.7" filter="url(#softenXs)"/>
    <path d="M529,258 C534,247 540,239 548,233" fill="none" stroke="#CFFAFE" stroke-opacity="0.65" stroke-width="1.7" filter="url(#softenXs)"/>
    <path d="M536,238 C522,248 514,266 513,286 C512,306 515,326 519,344 C521,360 524,374 526,390" fill="none" stroke="#CFFAFE" stroke-opacity="0.6" stroke-width="1.6" filter="url(#softenXs)"/>
    <path d="M555,494 C549,472 537,452 532,432" fill="none" stroke="#BAE6FD" stroke-opacity="0.45" stroke-width="1.5" filter="url(#softenXs)"/>

    <!-- cardiac node -->
    <g>
      <circle cx="570" cy="288" r="16" fill="#F87171" opacity="0.18" filter="url(#softenSm)">
        <animate attributeName="r" values="12;23;12" dur="1.15s" repeatCount="indefinite"/>
        <animate attributeName="opacity" values="0.34;0.05;0.34" dur="1.15s" repeatCount="indefinite"/>
      </circle>
      <circle cx="570" cy="288" r="5.5" fill="#FCA5A5">
        <animate attributeName="r" values="5;7;5" dur="1.15s" repeatCount="indefinite"/>
      </circle>
    </g>

    <!-- pelvic node -->
    <g>
      <circle cx="580" cy="390" r="15" fill="#F472B6" opacity="0.18" filter="url(#softenSm)">
        <animate attributeName="r" values="11;21;11" dur="2.6s" repeatCount="indefinite"/>
        <animate attributeName="opacity" values="0.34;0.06;0.34" dur="2.6s" repeatCount="indefinite"/>
      </circle>
      <circle cx="580" cy="390" r="4.6" fill="#F9A8D4"/>
    </g>

    <!-- state core -->
    <circle cx="580" cy="336" r="28" fill="#C026D3" opacity="0.20" filter="url(#soften)">
      <animate attributeName="r" values="22;36;22" dur="3.4s" repeatCount="indefinite"/>
    </circle>
    <circle cx="580" cy="336" r="7.5" fill="#F0ABFC">
      <animate attributeName="opacity" values="0.7;1;0.7" dur="3.4s" repeatCount="indefinite"/>
    </circle>

    <text x="580" y="118" text-anchor="middle" font-family="ui-monospace, SFMono-Regular, Menlo, Consolas, monospace" font-size="11.5" letter-spacing="2.4" fill="#C4B5FD">PATIENT TWIN</text>
  </g>

  <!-- output pulse -->
  <path d="M580,626 L580,664" stroke="#A78BFA" stroke-opacity="0.35" stroke-width="1.6" fill="none"/>
  <circle r="3.4" fill="#DDD6FE"><animateMotion dur="2.4s" repeatCount="indefinite"><mpath xlink:href="#tOut" href="#tOut"/></animateMotion><animate attributeName="opacity" values="0;1;1;0" keyTimes="0;0.15;0.8;1" dur="2.4s" repeatCount="indefinite"/></circle>

  <!-- ===== twin state bar ===== -->
  <g>
    <rect x="48" y="664" width="1064" height="46" rx="10" fill="#101728" stroke="#25324D" stroke-width="1.2"/>
    <text x="68" y="692" font-family="ui-monospace, SFMono-Regular, Menlo, Consolas, monospace" font-size="12" fill="#7C8DA6">TWIN STATE</text>
    <circle cx="182" cy="687" r="3.5" fill="#34D399"><animate attributeName="opacity" values="1;0.2;1" dur="1.6s" repeatCount="indefinite"/></circle>
    <text x="194" y="692" font-family="ui-monospace, SFMono-Regular, Menlo, Consolas, monospace" font-size="12" fill="#CBD5E1">case_confidence <tspan fill="#6EE7B7">0.86</tspan></text>
    <text x="392" y="692" font-family="ui-monospace, SFMono-Regular, Menlo, Consolas, monospace" font-size="12" fill="#CBD5E1">cvd_risk_tier <tspan fill="#FBBF24">ELEVATED</tspan></text>
    <text x="606" y="692" font-family="ui-monospace, SFMono-Regular, Menlo, Consolas, monospace" font-size="12" fill="#CBD5E1">pathway_stage <tspan fill="#7DD3FC">REFERRED</tspan></text>
    <text x="820" y="692" font-family="ui-monospace, SFMono-Regular, Menlo, Consolas, monospace" font-size="12" fill="#CBD5E1">staleness <tspan fill="#94A3B8">3d</tspan></text>
    <text x="944" y="692" font-family="ui-monospace, SFMono-Regular, Menlo, Consolas, monospace" font-size="12" fill="#CBD5E1">replayable <tspan fill="#6EE7B7">yes</tspan></text>
    <rect x="1064" y="680" width="8" height="15" fill="#A78BFA"><animate attributeName="opacity" values="1;0;1" dur="1.1s" repeatCount="indefinite"/></rect>
  </g>

  <text x="48" y="730" font-family="ui-sans-serif, -apple-system, Segoe UI, Helvetica, Arial, sans-serif" font-size="11.5" fill="#64748B">Dashed boundary = sandbox / governed environment. Every state transition is traceable to a source event.</text>
  <text x="1112" y="730" text-anchor="end" font-family="ui-sans-serif, -apple-system, Segoe UI, Helvetica, Arial, sans-serif" font-size="11.5" fill="#64748B">womens-health-digital-twin-use-cases</text>
</svg>
